#!OML:ASF E:\motion texture\Top Level 1\Subject 1\Session 1\male.ASF
:FULLY-SPECIFIED
:DEGREES
473
root -19.8183 17.8597 1.97952 124.348 -80.6531 -115.497
lowerback -0.409497 4.04034 8.1892
upperback -1.51027 5.32199 3.61754
thorax -0.934309 2.53536 -0.826949
lowerneck -16.1066 1.57063 -2.44699
upperneck 10.033 1.9917 4.73102
head 5.58024 1.23686 2.08012
rclavicle 3.21037e-014 7.95139e-015
rhumerus -11.5562 13.0189 -88.7206
rradius 44.1753
rwrist 6.82451
rhand -15.4624 -24.7583
rfingers 7.12502
rthumb 10.7188 -54.4649
lclavicle 3.21037e-014 7.95139e-015
lhumerus -38.0509 26.0081 75.8533
lradius 21.1996
lwrist -37.2999
lhand -10.6492 20.5973
lfingers 7.12502
lthumb 15.3584 50.0069
rfemur -4.53661 -0.455711 32.2174
rtibia 29.4303
rfoot -10.5891 -7.31738
rtoes -1.77976
lfemur -29.3279 -2.75802 -6.13169
ltibia 20.0542
lfoot -4.40093 5.91886
ltoes -12.0947
474
root -19.9868 17.8469 1.9903 126.269 -80.6415 -117.584
lowerback -0.428571 3.98426 8.03656
upperback -1.45254 5.24487 3.53337
thorax -0.874537 2.50372 -0.827961
lowerneck -16.1355 1.43105 -2.5907
upperneck 10.0641 1.82547 4.80436
head 5.59918 1.15634 2.11248
rclavicle 2.23633e-015 2.22639e-014
rhumerus -11.7715 12.8689 -88.818
rradius 43.6382
rwrist 6.89266
rhand -15.4867 -24.6574
rfingers 7.12502
rthumb 10.6953 -54.3651
lclavicle 2.23633e-015 2.22639e-014
lhumerus -38.4848 27.5406 74.7783
lradius 20.2516
lwrist -39.1681
lhand -10.5525 20.6381
lfingers 7.12502
lthumb 15.4515 50.0405
rfemur -4.82152 -0.606252 31.8
rtibia 30.9056
rfoot -10.0994 -7.24841
rtoes -2.43585
lfemur -29.0107 -2.84352 -6.45924
ltibia 20.0788
lfoot -4.27976 5.92119
ltoes -11.5098
475
root -20.1555 17.8348 2.00104 128.188 -80.629 -119.679
lowerback -0.442193 3.92336 7.8735
upperback -1.39239 5.16211 3.44757
thorax -0.816372 2.46929 -0.82532
lowerneck -16.1624 1.28799 -2.73662
upperneck 10.1048 1.65497 4.87633
head 5.62135 1.07358 2.14444
rclavicle -3.27995e-015 -3.97569e-015
rhumerus -11.9937 12.665 -88.916
rradius 43.0202
rwrist 6.97653
rhand -15.5147 -24.5779
rfingers 7.12502
rthumb 10.6683 -54.287
lclavicle -3.27995e-015 -3.97569e-015
lhumerus -38.9735 29.1215 73.6156
lradius 19.3354
lwrist -41.1395
lhand -10.454 20.6721
lfingers 7.12502
lthumb 15.5465 50.0671
rfemur -5.15415 -0.757557 31.3663
rtibia 32.4256
rfoot -9.56211 -7.22455
rtoes -3.03074
lfemur -28.6704 -2.9105 -6.81505
ltibia 20.1835
lfoot -4.19011 5.90818
ltoes -10.9277
476
root -20.3243 17.8234 2.01171 130.09 -80.6162 -121.772
lowerback -0.448602 3.85761 7.70117
upperback -1.32932 5.07382 3.36018
thorax -0.760128 2.43211 -0.819696
lowerneck -16.1893 1.14172 -2.88418
upperneck 10.1553 1.48052 4.94641
head 5.64715 0.988744 2.17577
rclavicle -4.22914e-014 -1.98785e-015
rhumerus -12.2205 12.4022 -89.0117
rradius 42.3222
rwrist 7.07696
rhand -15.5455 -24.5214
rfingers 7.12502
rthumb 10.6386 -54.2321
lclavicle -4.22914e-014 -1.98785e-015
lhumerus -39.5212 30.7493 72.3611
lradius 18.4526
lwrist -43.2181
lhand -10.3596 20.6967
lfingers 7.12502
lthumb 15.6373 50.0847
rfemur -5.5314 -0.911314 30.9179
rtibia 33.9816
rfoot -8.98105 -7.24774
rtoes -3.56079
lfemur -28.3044 -2.96082 -7.19799
ltibia 20.3608
lfoot -4.13474 5.88198
ltoes -10.3551
477
root -20.4931 17.8127 2.02226 131.977 -80.604 -123.862
lowerback -0.44624 3.78706 7.51891
upperback -1.26399 4.98022 3.27163
thorax -0.7074 2.3922 -0.810397
lowerneck -16.2139 0.993163 -3.03329
upperneck 10.2145 1.30332 5.01465
head 5.67587 0.90238 2.20655
rclavicle 3.04638e-014 -7.95139e-016
rhumerus -12.4539 12.075 -89.1032
rradius 41.5478
rwrist 7.1969
rhand -15.5793 -24.4915
rfingers 7.12502
rthumb 10.606 -54.2038
lclavicle 3.04638e-014 -7.95139e-016
lhumerus -40.1352 32.4159 71.0138
lradius 17.6082
lwrist -45.3925
lhand -10.2726 20.7134
lfingers 7.12502
lthumb 15.7212 50.0948
rfemur -5.9503 -1.06773 30.4555
rtibia 35.5642
rfoot -8.36143 -7.3177
rtoes -4.02439
lfemur -27.9095 -2.99664 -7.60681
ltibia 20.6008
lfoot -4.11787 5.8445
ltoes -9.78592
478
root -20.6617 17.8029 2.03263 133.842 -80.5927 -125.939
lowerback -0.440012 3.71259 7.32742
upperback -1.19649 4.88189 3.18203
thorax -0.655374 2.34988 -0.797256
lowerneck -16.2425 0.841704 -3.18346
upperneck 10.2869 1.12251 5.0801
head 5.70997 0.814109 2.23641
rclavicle -1.79403e-014 2.78299e-015
rhumerus -12.6906 11.681 -89.1862
rradius 40.7019
rwrist 7.33486
rhand -15.6208 -24.4886
rfingers 7.12502
rthumb 10.566 -54.203
lclavicle -1.79403e-014 2.78299e-015
lhumerus -40.8169 34.1046 69.581
lradius 16.8116
lwrist -47.6483
lhand -10.1808 20.7253
lfingers 7.12502
lthumb 15.8095 50.0997
rfemur -6.41609 -1.22638 29.9824
rtibia 37.1682
rfoot -7.71248 -7.43442
rtoes -4.4143
lfemur -27.4918 -3.01787 -8.03867
ltibia 20.8968
lfoot -4.13905 5.79746
ltoes -9.2456
479
root -20.83 17.7939 2.04279 135.685 -80.5832 -128.005
lowerback -0.426694 3.63416 7.12663
upperback -1.12761 4.7791 3.09173
thorax -0.606657 2.30519 -0.780127
lowerneck -16.271 0.688651 -3.33499
upperneck 10.3707 0.939776 5.14366
head 5.74816 0.724737 2.26577
rclavicle -2.33572e-014 -2.0276e-014
rhumerus -12.9329 11.2145 -89.2581
rradius 39.7879
rwrist 7.49545
rhand -15.6683 -24.5143
rfingers 7.12502
rthumb 10.5202 -54.231
lclavicle -2.33572e-014 -2.0276e-014
lhumerus -41.5693 35.803 68.0668
lradius 16.064
lwrist -49.9652
lhand -10.0965 20.7262
lfingers 7.12502
lthumb 15.8908 50.0942
rfemur -6.9233 -1.38766 29.4994
rtibia 38.7824
rfoot -7.04113 -7.5949
rtoes -4.73242
lfemur -27.0463 -3.02765 -8.49167
ltibia 21.238
lfoot -4.20017 5.74445
ltoes -8.72412
480
root -20.9979 17.7858 2.05267 137.495 -80.576 -130.045
lowerback -0.408391 3.55201 6.91815
upperback -1.05838 4.67194 3.00096
thorax -0.560934 2.25811 -0.759471
lowerneck -16.303 0.534373 -3.48616
upperneck 10.4684 0.755379 5.20405
head 5.79185 0.634409 2.294
rclavicle -7.85199e-015 3.97569e-016
rhumerus -13.1813 10.6693 -89.3159
rradius 38.8125
rwrist 7.68338
rhand -15.7212 -24.5733
rfingers 7.12502
rthumb 10.4691 -54.2926
lclavicle -7.85199e-015 3.97569e-016
lhumerus -42.3891 37.4898 66.4835
lradius 15.37
lwrist -52.3148
lhand -10.0186 20.7203
lfingers 7.12502
lthumb 15.9658 50.0823
rfemur -7.47297 -1.55268 29.0098
rtibia 40.3977
rfoot -6.35547 -7.79557
rtoes -4.9844
lfemur -26.5759 -3.02716 -8.96201
ltibia 21.6149
lfoot -4.30029 5.68549
ltoes -8.23113
481
root -21.1653 17.7787 2.06224 139.27 -80.5712 -132.057
lowerback -0.384819 3.46693 6.70308
upperback -0.989318 4.56145 2.90982
thorax -0.518715 2.20911 -0.735798
lowerneck -16.3371 0.379323 -3.63785
upperneck 10.5797 0.569798 5.26336
head 5.84067 0.54346 2.32191
rclavicle 1.61016e-014 9.93923e-015
rhumerus -13.4362 10.0385 -89.3554
rradius 37.7804
rwrist 7.9046
rhand -15.7813 -24.6605
rfingers 7.12502
rthumb 10.4111 -54.3828
lclavicle 1.61016e-014 9.93923e-015
lhumerus -43.2661 39.1367 64.8544
lradius 14.7346
lwrist -54.6643
lhand -9.94488 20.7125
lfingers 7.12502
lthumb 16.0367 50.0688
rfemur -8.06279 -1.72013 28.5166
rtibia 42.0054
rfoot -5.66676 -8.03415
rtoes -5.1704
lfemur -26.0797 -3.01801 -9.44683
ltibia 22.0175
lfoot -4.43625 5.62194
ltoes -7.77319
482
root -21.3321 17.7725 2.07146 141.003 -80.5703 -134.031
lowerback -0.356969 3.3788 6.48222
upperback -0.921275 4.44734 2.8189
thorax -0.480265 2.158 -0.708862
lowerneck -16.3729 0.224167 -3.78783
upperneck 10.7041 0.383827 5.31872
head 5.8944 0.452126 2.34826
rclavicle -4.78326e-014 3.97569e-015
rhumerus -13.6985 9.31693 -89.372
rradius 36.6984
rwrist 8.16493
rhand -15.8456 -24.7815
rfingers 7.12502
rthumb 10.3491 -54.5068
lclavicle -4.78326e-014 3.97569e-015
lhumerus -44.1829 40.7187 63.2083
lradius 14.1598
lwrist -56.9738
lhand -9.87415 20.703
lfingers 7.12502
lthumb 16.1048 50.0538
rfemur -8.69008 -1.89187 28.0219
rtibia 43.5926
rfoot -4.98445 -8.30613
rtoes -5.28636
lfemur -25.5585 -3.00301 -9.94314
ltibia 22.4362
lfoot -4.60941 5.55484
ltoes -7.3526
483
root -21.4982 17.7674 2.08027 142.685 -80.5732 -135.959
lowerback -0.324584 3.28823 6.25784
upperback -0.854003 4.33035 2.72877
thorax -0.445249 2.10514 -0.679282
lowerneck -16.4152 0.0692969 -3.93915
upperneck 10.8438 0.198111 5.37449
head 5.95446 0.360993 2.37506
rclavicle 7.85199e-015 3.57812e-015
rhumerus -13.9673 8.49916 -89.3608
rradius 35.573
rwrist 8.4687
rhand -15.9122 -24.9375
rfingers 7.12502
rthumb 10.2848 -54.666
lclavicle 7.85199e-015 3.57812e-015
lhumerus -45.1137 42.2128 61.5799
lradius 13.6452
lwrist -59.2064
lhand -9.80919 20.6904
lfingers 7.12502
lthumb 16.1674 50.0361
rfemur -9.35155 -2.06721 27.5299
rtibia 45.1499
rfoot -4.32266 -8.60745
rtoes -5.35404
lfemur -25.011 -2.98547 -10.4465
ltibia 22.86
lfoot -4.81683 5.48581
ltoes -6.96636
484
root -21.6634 17.7632 2.08863 144.308 -80.5824 -137.829
lowerback -0.290066 3.195 6.0304
upperback -0.78923 4.21 2.63977
thorax -0.414073 2.05023 -0.646859
lowerneck -16.4605 -0.0851511 -4.0876
upperneck 10.9971 0.0125498 5.4257
head 6.01984 0.26974 2.39994
rclavicle -3.78933e-014 1.59028e-015
rhumerus -14.2445 7.57912 -89.3165
rradius 34.4122
rwrist 8.82275
rhand -15.9784 -25.1257
rfingers 7.12502
rthumb 10.221 -54.8574
lclavicle -3.78933e-014 1.59028e-015
lhumerus -46.0174 43.5759 60.031
lradius 13.1964
lwrist -61.2988
lhand -9.74625 20.6772
lfingers 7.12502
lthumb 16.228 50.018
rfemur -10.0476 -2.24846 27.0432
rtibia 46.6676
rfoot -3.68589 -8.93547
rtoes -5.35664
lfemur -24.4425 -2.96725 -10.9542
ltibia 23.282
lfoot -5.05341 5.41644
ltoes -6.63509
485
root -21.8276 17.7601 2.0965 145.875 -80.5975 -139.641
lowerback -0.253186 3.09977 5.80122
upperback -0.727638 4.08713 2.55249
thorax -0.387417 1.99367 -0.611712
lowerneck -16.5083 -0.238076 -4.23598
upperneck 11.1633 -0.171219 5.47564
head 6.09005 0.179282 2.42454
rclavicle -9.31803e-015 -3.26007e-014
rhumerus -14.5323 6.55227 -89.2341
rradius 33.2233
rwrist 9.23406
rhand -16.048 -25.3434
rfingers 7.12502
rthumb 10.1539 -55.0784
lclavicle -9.31803e-015 -3.26007e-014
lhumerus -46.8489 44.7816 58.6183
lradius 12.8115
lwrist -63.2021
lhand -9.68742 20.6647
lfingers 7.12502
lthumb 16.2846 50.0009
rfemur -10.7749 -2.43363 26.5646
rtibia 48.1359
rfoot -3.08104 -9.28704
rtoes -5.3034
lfemur -23.8515 -2.954 -11.4619
ltibia 23.6909
lfoot -5.31336 5.34993
ltoes -6.32922
486
root -21.991 17.7579 2.1039 147.38 -80.6214 -141.39
lowerback -0.214326 3.00175 5.57032
upperback -0.668701 3.96063 2.46729
thorax -0.36456 1.93493 -0.573435
lowerneck -16.5608 -0.389504 -4.38339
upperneck 11.3415 -0.353276 5.52394
head 6.16526 0.0896075 2.44856
rclavicle -3.11595e-014 5.1684e-015
rhumerus -14.83 5.41232 -89.1074
rradius 32.0133
rwrist 9.71355
rhand -16.1162 -25.5884
rfingers 7.12502
rthumb 10.0881 -55.3266
lclavicle -3.11595e-014 5.1684e-015
lhumerus -47.555 45.808 57.4049
lradius 12.4891
lwrist -64.8698
lhand -9.63353 20.6538
lfingers 7.12502
lthumb 16.3365 49.9857
rfemur -11.5271 -2.62581 26.0947
rtibia 49.5416
rfoot -2.51652 -9.6572
rtoes -5.19999
lfemur -23.2379 -2.94741 -11.9697
ltibia 24.079
lfoot -5.59373 5.28568
ltoes -6.06179
487
root -22.1531 17.7568 2.1106 148.822 -80.6513 -143.069
lowerback -0.176687 2.9035 5.33959
upperback -0.613491 3.83362 2.38521
thorax -0.344548 1.87556 -0.531816
lowerneck -16.62 -0.538308 -4.529
upperneck 11.5326 -0.532334 5.57106
head 6.24601 0.00143175 2.47218
rclavicle -1.01132e-014 1.86858e-014
rhumerus -15.1389 4.1563 -88.9296
rradius 30.7912
rwrist 10.2652
rhand -16.1847 -25.8602
rfingers 7.12502
rthumb 10.022 -55.6016
lclavicle -1.01132e-014 1.86858e-014
lhumerus -48.0735 46.6269 56.4649
lradius 12.2292
lwrist -66.2483
lhand -9.57967 20.6464
lfingers 7.12502
lthumb 16.3884 49.9741
rfemur -12.3084 -2.8193 25.6411
rtibia 50.8785
rfoot -2.00266 -10.045
rtoes -5.06033
lfemur -22.6078 -2.94486 -12.4697
ltibia 24.4384
lfoot -5.88879 5.22603
ltoes -5.84141
